<?xml version="1.0" encoding="UTF-8"?>
<svg width="14px" height="14px" viewBox="0 0 14 14" version="1.1" xmlns="http://www.w3.org/2000/svg" xmlns:xlink="http://www.w3.org/1999/xlink">
    <g id="Page-1" stroke="none" stroke-width="1" fill="none" fill-rule="evenodd">
        <g id="linkedin" fill-rule="nonzero">
            <g id="Group" fill="#0077B5">
                <path d="M0,1.16955218 C0,0.523626346 0.523265298,0 1.16955218,0 L12.8304478,0 C13.4763737,0 14,0.523265298 14,1.16955218 L14,12.8304478 C14,13.4763737 13.4767347,14 12.8304478,14 L1.16955218,14 C0.523626346,14 0,13.4767347 0,12.8304478 L0,1.16955218 Z M5.54166667,5.3375 L7.4375,5.3375 L7.4375,6.29008333 C7.71079167,5.74233333 8.41108333,5.25 9.463125,5.25 C11.4797083,5.25 11.9583333,6.34025 11.9583333,8.34079167 L11.9583333,12.0458333 L9.91666667,12.0458333 L9.91666667,8.796375 C9.91666667,7.657125 9.643375,7.01458333 8.94833333,7.01458333 C7.984375,7.01458333 7.58333333,7.70729167 7.58333333,8.796375 L7.58333333,12.0458333 L5.54166667,12.0458333 L5.54166667,5.3375 Z M2.04166667,11.9583333 L4.08333333,11.9583333 L4.08333333,5.25 L2.04166667,5.25 L2.04166667,11.9583333 Z M4.375,3.0625 C4.375,3.78729167 3.78729167,4.375 3.0625,4.375 C2.33770833,4.375 1.75,3.78729167 1.75,3.0625 C1.75,2.33770833 2.33770833,1.75 3.0625,1.75 C3.78729167,1.75 4.375,2.33770833 4.375,3.0625 Z" id="Shape"></path>
            </g>
            <g id="Group" transform="translate(1.000000, 1.000000)" fill="#FFFFFF">
                <path d="M4,4 L5.85,4 L5.85,5.016 L5.893,5.016 C6.259,4.541 7.018,3.938 8.25,3.938 C10.125,3.938 11,4.808 11,7 L11,11 L9,11 L9,7.75 C9,6.313 8.672,5.875 7.632,5.875 C6.5,5.875 6,6.75 6,8 L6,11 L4,11 L4,4 Z M1,11 L3,11 L3,4 L1,4 L1,11 Z M3.335,2 C3.335,2.737 2.737,3.335 2,3.335 C1.263,3.335 0.665,2.737 0.665,2 C0.665,1.263 1.263,0.665 2,0.665 C2.737,0.665 3.335,1.263 3.335,2 Z" id="Shape"></path>
            </g>
        </g>
    </g>
</svg>